<?xml version="1.0" encoding="utf-8"?>
<!-- Generator: Adobe Illustrator 21.0.2, SVG Export Plug-In . SVG Version: 6.00 Build 0)  -->
<svg version="1.1" id="Layer_1" xmlns="http://www.w3.org/2000/svg" xmlns:xlink="http://www.w3.org/1999/xlink" x="0px" y="0px"
	 viewBox="0 0 96.3 53" style="enable-background:new 0 0 96.3 53;" xml:space="preserve">
<style type="text/css">
	.st0{fill:#939598;}
	.st1{fill:#FFCC08;}
</style>
<g>
	<rect x="21.2" y="35.4" class="st0" width="3.9" height="4"/>
	<rect x="41.9" y="35.4" class="st0" width="3.9" height="4"/>
	<path class="st0" d="M8.9,43.4c0,0.7-0.3,1-1,1c-0.7,0-1-0.3-1-1V42h0.6v1.4c0,0.3,0.1,0.5,0.4,0.5c0.3,0,0.4-0.2,0.4-0.5V42h0.6
		V43.4z"/>
	<polygon class="st0" points="11.7,42 12.3,42 13.1,43.5 13.1,43.5 13.1,42 13.7,42 13.7,44.4 13.1,44.4 12.3,42.9 12.3,42.9 
		12.3,44.4 11.7,44.4 	"/>
	<rect x="16.5" y="42" class="st0" width="0.6" height="2.4"/>
	<polygon class="st0" points="19.9,42 21.6,42 21.6,42.5 20.5,42.5 20.5,43 21.4,43 21.4,43.5 20.5,43.5 20.5,44.4 19.9,44.4 	"/>
	<path class="st0" d="M24.8,43.2c0,0.2,0,0.3,0.1,0.5c0.1,0.1,0.2,0.2,0.4,0.2c0.2,0,0.3-0.1,0.4-0.2c0.1-0.1,0.1-0.3,0.1-0.5
		c0-0.2,0-0.3-0.1-0.5c-0.1-0.1-0.2-0.2-0.4-0.2c-0.2,0-0.3,0.1-0.4,0.2C24.8,42.8,24.8,43,24.8,43.2 M24.2,43.2
		c0-0.4,0.1-0.6,0.3-0.9c0.2-0.2,0.5-0.4,0.8-0.4c0.4,0,0.6,0.1,0.8,0.4c0.2,0.2,0.3,0.5,0.3,0.9c0,0.4-0.1,0.6-0.3,0.9
		c-0.2,0.2-0.5,0.4-0.8,0.4c-0.4,0-0.6-0.1-0.8-0.4C24.3,43.8,24.2,43.5,24.2,43.2"/>
	<path class="st0" d="M29.8,43h0.5c0.2,0,0.3-0.1,0.3-0.3c0-0.1,0-0.2-0.1-0.2c-0.1,0-0.1-0.1-0.2-0.1h-0.5V43z M29.2,42h1.2
		c0.2,0,0.4,0.1,0.6,0.2c0.2,0.1,0.2,0.3,0.2,0.5c0,0.1,0,0.2-0.1,0.4c-0.1,0.1-0.2,0.2-0.3,0.2v0c0.1,0,0.1,0,0.2,0.1
		c0,0,0.1,0.1,0.1,0.1c0,0.1,0.1,0.2,0.1,0.3c0,0.1,0,0.2,0,0.3c0,0.1,0,0.1,0,0.2c0,0,0,0.1,0,0.1h-0.6c0,0,0,0,0-0.1
		c0,0,0-0.1,0-0.1c0-0.1,0-0.1,0-0.2c0-0.1,0-0.1,0-0.2c0-0.1,0-0.1,0-0.2c0,0-0.1-0.1-0.1-0.1c0,0-0.1,0-0.2,0h-0.5v0.9h-0.6V42z"
		/>
	<polygon class="st0" points="33.9,42 34.8,42 35.2,43.6 35.2,43.6 35.6,42 36.5,42 36.5,44.4 35.9,44.4 35.9,42.6 35.9,42.6 
		35.4,44.4 35,44.4 34.5,42.6 34.5,42.6 34.5,44.4 33.9,44.4 	"/>
	<polygon class="st0" points="39.3,42 41.1,42 41.1,42.5 39.9,42.5 39.9,42.9 41,42.9 41,43.4 39.9,43.4 39.9,43.8 41.2,43.8 
		41.2,44.4 39.3,44.4 	"/>
	<path class="st0" d="M44.4,43.6c0,0.1,0.1,0.2,0.1,0.3c0.1,0.1,0.2,0.1,0.3,0.1c0,0,0.1,0,0.1,0c0,0,0.1,0,0.1,0
		c0.1,0,0.1-0.1,0.1-0.2c0-0.1,0-0.1-0.1-0.1c0,0-0.1-0.1-0.1-0.1c-0.1,0-0.3-0.1-0.5-0.1c-0.2,0-0.3-0.1-0.5-0.2
		c-0.1-0.1-0.2-0.3-0.2-0.5c0-0.1,0-0.2,0.1-0.3c0.1-0.1,0.1-0.2,0.2-0.2c0.2-0.1,0.4-0.2,0.6-0.2c0.2,0,0.4,0.1,0.6,0.2
		c0.1,0.1,0.2,0.1,0.2,0.2c0,0.1,0.1,0.2,0.1,0.3h-0.6c0-0.1,0-0.2-0.1-0.2c-0.1,0-0.2-0.1-0.3-0.1c-0.1,0-0.1,0-0.2,0
		c-0.1,0-0.1,0.1-0.1,0.2c0,0,0,0.1,0.1,0.1c0,0,0.1,0.1,0.1,0.1c0.1,0,0.1,0,0.2,0.1c0,0,0.1,0,0.1,0c0,0,0.1,0,0.1,0
		c0.2,0,0.3,0.1,0.5,0.2c0.1,0.1,0.1,0.1,0.2,0.2c0,0.1,0.1,0.2,0.1,0.3c0,0.3-0.1,0.5-0.3,0.6c-0.2,0.1-0.4,0.2-0.7,0.2
		c-0.3,0-0.5-0.1-0.7-0.2c-0.2-0.1-0.3-0.4-0.3-0.6H44.4z"/>
	<path class="st1" d="M60.8,27.1h0.8l2-3.8C61.9,24.1,61,25.7,60.8,27.1"/>
	<path class="st1" d="M56.9,28.2v1.6h-0.7v-1.6H53v0.6v1h-0.6l-2.2,3.9c0.8,2.2,2.1,4.1,3.8,5.8l1.1,0l5.3-10
		c-0.2-0.8-0.2-1.1-0.2-1.2H56.9z"/>
	<path class="st1" d="M47.5,39.4h3.6c-0.8-1.1-1.1-1.5-1.9-2.8L47.5,39.4z"/>
	<path class="st1" d="M46.4,15.9v5.5H48c0.7-2,1.8-3.9,3.1-5.5H46.4z"/>
	<path class="st1" d="M50.4,21.4h6.9L54,27.1h2.2v-1.6h0.7v1.6h3.3c0.3-2.3,1.9-4.1,4-4.7l0.4-0.7v-2.5h-1v-0.7h1v-3.2h-1v-0.7h1
		v-0.5H56C52.9,16.5,51.3,19.2,50.4,21.4"/>
	<path class="st1" d="M75.4,14.3H67v0.5h0.8v0.7H67v3.2h0.8v0.7H67v2.1H78l-2.8,4.8v0.9h3.2v-1.5H79v1.5h3.2l-0.1-0.9
		C81.9,22.1,79.7,17.4,75.4,14.3"/>
	<path class="st1" d="M85.2,20.8v-4.9h-5c1.7,2.1,3,4.6,3.7,7.3L85.2,20.8z"/>
	<polygon class="st1" points="79,29.9 78.4,29.9 78.4,28.2 75.2,28.2 75.2,29.9 74.5,29.9 74.5,28.2 74,28.2 67.6,39.4 75.7,39.4 
		81.9,28.2 79,28.2 	"/>
	<path class="st1" d="M60.8,27.1h0.8l2-3.8C61.9,24.1,61,25.7,60.8,27.1"/>
	<path class="st1" d="M56.9,28.2v1.6h-0.7v-1.6H53v0.6v1h-0.6l-2.2,3.9c0.8,2.2,2.1,4.1,3.8,5.8l1.1,0l5.3-10
		c-0.2-0.8-0.2-1.1-0.2-1.2H56.9z"/>
	<path class="st1" d="M47.5,39.4h3.6c-0.8-1.1-1.1-1.5-1.9-2.8L47.5,39.4z"/>
	<path class="st1" d="M46.4,15.9v5.5H48c0.7-2,1.8-3.9,3.1-5.5H46.4z"/>
	<path class="st1" d="M50.4,21.4h6.9L54,27.1h2.2v-1.6h0.7v1.6h3.3c0.3-2.3,1.9-4.1,4-4.7l0.4-0.7v-2.5h-1v-0.7h1v-3.2h-1v-0.7h1
		v-0.5H56C52.9,16.5,51.3,19.2,50.4,21.4"/>
	<path class="st1" d="M75.4,14.3H67v0.5h0.8v0.7H67v3.2h0.8v0.7H67v2.1H78l-2.8,4.8v0.9h3.2v-1.5H79v1.5h3.2l-0.1-0.9
		C81.9,22.1,79.7,17.4,75.4,14.3"/>
	<path class="st1" d="M85.2,20.8v-4.9h-5c1.7,2.1,3,4.6,3.7,7.3L85.2,20.8z"/>
	<polygon class="st1" points="79,29.9 78.4,29.9 78.4,28.2 75.2,28.2 75.2,29.9 74.5,29.9 74.5,28.2 74,28.2 67.6,39.4 75.7,39.4 
		81.9,28.2 79,28.2 	"/>
	<path class="st0" d="M89.3,9.1C89.7,9.5,90,10,90,10.6c0,0.6-0.2,1.1-0.6,1.5c-0.4,0.4-0.9,0.6-1.5,0.6c-0.6,0-1.1-0.2-1.5-0.6
		c-0.4-0.4-0.6-0.9-0.6-1.5c0-0.6,0.2-1.1,0.6-1.5c0.4-0.4,0.9-0.6,1.5-0.6C88.5,8.4,88.9,8.6,89.3,9.1 M86.2,8.8
		c-0.5,0.5-0.7,1.1-0.7,1.7c0,0.7,0.2,1.3,0.7,1.7c0.5,0.5,1.1,0.7,1.7,0.7c0.7,0,1.2-0.2,1.7-0.7c0.5-0.5,0.7-1.1,0.7-1.7
		c0-0.7-0.2-1.3-0.7-1.7c-0.5-0.5-1.1-0.7-1.7-0.7C87.2,8.1,86.6,8.3,86.2,8.8 M87.3,9.6h0.8c0.3,0,0.4,0.1,0.4,0.4
		c0,0.3-0.2,0.4-0.5,0.4h-0.7V9.6z M87.3,11.9V11H88c0.3,0,0.4,0.1,0.4,0.4v0.5H89v-0.6c0-0.3-0.1-0.5-0.4-0.5
		c0.3-0.1,0.4-0.3,0.4-0.7c0-0.6-0.3-0.9-0.9-0.9h-1.4v2.7H87.3z"/>
	<path class="st0" d="M66.2,44.3v-3.5h1.6v-0.7h-1.6V37h1.6v-0.7h-1.6v-3c2.7-0.3,4.8-2.4,5-5.1H74h0.5v1.7h0.7v-1.7h3.2v1.7H79
		v-1.7h2h1.2C82,37,75,44,66.2,44.3 M66.2,28.2h4.4c-0.2,2.3-2.1,4.2-4.4,4.5V28.2z M66.2,22.9c2.2,0.2,4.1,2,4.4,4.2h-4.4V22.9z
		 M66.2,19.3H67h0.8v-0.7H67h-0.8v-3.2h1.6v-0.7h-1.6v-3.6c4.3,0.1,8.2,1.9,11,4.7c2.7,2.7,4.5,6.3,4.9,10.3c0,0.3,0,0.6,0.1,0.9
		h-0.6H79v-1.5h-0.7v1.5h-3.2v-0.9v-0.6h-0.7v1.5h-3.3c-0.3-2.6-2.4-4.6-5-4.9V19.3z M65.1,14.8h-1.6v0.7h1.6v3.2h-0.6h-1v0.7h1h0.6
		v3c-0.6,0.1-1.2,0.2-1.7,0.4c-1.8,0.8-3.1,2.5-3.3,4.4h-3.3v-1.6h-0.7v1.6H54H53v-1.6h-0.7v1.6h-3.3c0.1-2,0.5-4,1.3-5.8
		c0.9-2.1,2.1-3.9,3.7-5.5c2.9-2.8,6.7-4.6,11-4.7V14.8z M65.1,27.1H61h-0.2c0.2-1.4,0.9-2.6,2-3.3c0.7-0.5,1.4-0.8,2.3-0.9V27.1z
		 M65.1,32.7c-2.3-0.3-4.1-2.1-4.3-4.5h4.3V32.7z M65.1,36.3h-1.6V37h1.6v3.2h-1.6v0.7h1.6v3.5c-4.4-0.1-8.3-2-11.2-4.9
		c-1.6-1.6-2.9-3.6-3.8-5.8c-0.7-1.7-1-3.5-1.1-5.5h3.3v1.6h0.1H53v-1v-0.6h0.3h2.8v1.6h0.7v-1.6h3.3c0,0.1,0,0.2,0,0.3
		c0.4,2.5,2.4,4.5,4.9,4.8V36.3z M84.4,27.1c0-1.4-0.2-2.7-0.6-4c-0.7-2.7-2-5.2-3.7-7.3c-3.3-4.1-8.4-6.7-14-6.9V7.9h-1.1V9
		c-5.6,0.2-10.6,2.8-14,6.9c-1.3,1.6-2.4,3.5-3.1,5.5c-0.7,1.8-1,3.7-1.1,5.8h-1v1.1h1c0.1,2.8,0.8,5.5,1.9,7.8
		c0.6,1.2,1.3,2.4,2.2,3.4c3.3,4.2,8.4,6.9,14.1,7v0.9h1.1v-0.9c9.9-0.3,18-8.3,18.2-18.3h1v-1.1H84.4z"/>
	<path class="st0" d="M13.3,31.7c1.5,0,2.5-0.8,2.5-2v0c0-1.3-1-2-2.5-2h-2v4.1H13.3z M6.9,24h6.7c3.9,0,6.4,2,6.4,5.4v0
		c0,3.7-2.8,5.6-6.6,5.6h-2.1v4.4H6.9V24z"/>
	<path class="st0" d="M33.5,31.4c1.4,0,2.3-0.7,2.3-1.8v0c0-1.2-0.9-1.9-2.3-1.9h-2.8v3.7H33.5z M26.4,24h7.3c2.4,0,4,0.6,5,1.7
		c0.9,0.9,1.4,2.1,1.4,3.6v0c0,2.4-1.3,4-3.2,4.8l3.7,5.4h-4.9l-3.1-4.7h-1.9v4.7h-4.3V24z"/>
</g>
</svg>
